<?xml version="1.0" encoding="UTF-8" standalone="no"?>
<!-- Created with Inkscape (http://www.inkscape.org/) -->

<svg
   width="10.711321mm"
   height="18.905952mm"
   viewBox="0 0 10.711321 18.905952"
   version="1.1"
   id="svg1"
   xml:space="preserve"
   xmlns="http://www.w3.org/2000/svg"
   xmlns:svg="http://www.w3.org/2000/svg"><defs
     id="defs1" /><g
     id="layer1"
     transform="translate(-76.771533,-191.34692)"><path
       style="fill:#000000;fill-opacity:1;stroke:#000000;stroke-width:0.3;stroke-linecap:round;stroke-linejoin:round;stroke-dasharray:none;stroke-opacity:1"
       d="m 78.420547,192.68492 c 0,0 1.556762,-1.1337 2.023755,-1.12863 0,0 1.984838,-0.15569 3.580492,0.0389 1.284306,1.20647 2.257266,5.37073 2.257266,5.37073 l 1.050797,13.1155 c 0,0 -2.568615,0.11675 -3.269144,-0.19459 -0.700532,-0.31135 -4.981553,-3.77509 -5.448574,-5.17615 -0.467021,-1.40106 -0.27793,-2.77566 -0.389181,-3.814 -0.116756,-1.08972 -0.412759,-2.21672 0.661611,-2.84105 0.724827,-0.42121 1.595654,1.86808 1.595654,1.86808 0,0 -0.07784,2.29619 1.401064,2.41294 0.702649,0.0555 0.93404,-3.93075 0.93404,-3.93075 0,0 -0.778369,-2.64645 -0.778369,-3.89184 0,-1.4789 -1.829164,0.73944 -3.930757,0.66161 -2.101593,-0.0778 -0.778367,-1.43998 -0.778367,-1.43998 z"
       id="path4" /></g></svg>
