<?xml version="1.0" encoding="UTF-8" standalone="no"?>
<!-- Created with Inkscape (http://www.inkscape.org/) -->

<svg
   version="1.1"
   id="svg1"
   width="126.48828"
   height="126.48634"
   viewBox="0 0 126.48828 126.48634"
   xmlns="http://www.w3.org/2000/svg"
   xmlns:svg="http://www.w3.org/2000/svg">
  <defs
     id="defs1" />
  <g
     id="g1"
     transform="translate(-0.90429689,-0.67968752)">
    <path
       id="path1"
       style="opacity:1;fill:#000000;fill-opacity:1;stroke-width:4.53543;stroke-linecap:round;stroke-linejoin:round"
       d="M 64.148438,-0.6796875 A 63.243629,63.243629 0 0 1 0.90429688,-63.921875 63.243629,63.243629 0 0 1 64.148438,-127.16602 63.243629,63.243629 0 0 1 127.39258,-63.921875 63.243629,63.243629 0 0 1 64.148438,-0.6796875 Z M 57.115234,-41.193359 c 1.252463,0.0071 2.493159,-0.04507 3.638672,-0.158203 4.582052,-0.452549 6.619134,-5.261129 8.146485,-7.863282 1.527351,-2.602153 1.359859,-20.693796 0.679687,-25.568359 -0.678823,-4.864895 -4.808594,-9.730469 -4.808594,-9.730469 0,0 -5.883361,-2.602147 -12.445312,-1.527344 -6.561951,1.074802 -8.771415,8.703971 -9.333984,10.634766 -0.739574,2.538291 -1.313366,18.657089 0.113281,24.097656 1.426647,5.440567 2.43257,6.958906 4.695312,8.429688 1.697056,1.103085 5.557065,1.664337 9.314453,1.685547 z m 33.898438,-0.574219 c 1.115097,0.0071 2.220358,-0.04507 3.240234,-0.158203 4.079508,-0.452549 5.892124,-5.261128 7.251954,-7.863281 1.35984,-2.602154 1.21104,-20.693797 0.60547,-25.56836 -0.60437,-4.864895 -4.281252,-9.730469 -4.281252,-9.730469 0,0 -5.237821,-2.602146 -11.080078,-1.527343 -5.842258,1.074802 -7.809679,8.70397 -8.310547,10.634765 -0.658459,2.538291 -1.168614,18.657089 0.101563,24.097657 1.270177,5.440566 2.165115,6.958905 4.179687,8.429687 1.510928,1.103085 4.947679,1.664337 8.292969,1.685547 z m -67.25586,-0.431641 c 4.909047,0.0254 7.69509,-2.151241 9.052735,-5.884765 1.357645,-3.733524 2.488281,-36.769532 2.488281,-36.769532 l -7.580078,0.566407 -1.130859,31.791015 c 0,0 -1.199241,2.143239 -3.394532,1.923828 -2.722855,-0.272139 -3.394531,-3.507812 -3.394531,-3.507812 l 1.357422,-28.962891 -5.542969,0.679688 c 0,0 -0.5328,14.632219 -1.324219,23.513672 -0.516612,5.797545 -0.102749,8.125134 -2.488281,7.978515 -3.7032352,-0.227608 -3.0512075,-19.86454 -0.826172,-30.248047 -2.6021516,1.470782 -4.2988277,2.714844 -4.2988278,2.714844 0,0 -3.9323097,32.718644 4.2988278,33.601563 4.911758,0.526863 5.65625,-2.488282 5.65625,-2.488282 0,0 2.764876,5.069225 7.126953,5.091797 z m 91.435548,-1.134765 c 0.13363,-0.0022 0.26852,-0.0098 0.40625,-0.02539 4.38151,-0.497139 6.7354,-5.843117 7.04101,-8.720703 0,0 -0.24093,-23.200313 -0.96093,-28.320313 -3.4875,-0.96875 -3.82236,-0.434637 -3.83985,-0.40039 0,0 2.6,23.361328 1,27.361328 -1.6,4 -4.43945,0.40039 -4.43945,0.400391 l -1.51953,-29.681641 h -5.04102 l 1.04102,33.28125 c 0,0 2.17002,6.174142 6.3125,6.105468 z m -58.625001,-6.615235 c -5.092369,0.02413 -4.865234,-4.074219 -4.865234,-4.074219 0,10e-7 -0.62211,-18.441471 0.113281,-20.02539 0.735391,-1.58392 1.809884,-3.50593 4.355469,-3.5625 2.545584,-0.05657 4.35583,2.091646 4.638672,3.505859 0.282843,1.414214 0.4987,18.838084 -0.169922,20.705078 -0.446477,1.246699 0.169987,3.431072 -4.072266,3.451172 z m 33.958985,-0.574219 c -4.533855,0.02413 -4.332032,-4.074218 -4.332032,-4.074218 0,0 -0.553172,-18.441472 0.101563,-20.025391 0.654736,-1.58392 1.610559,-3.50593 3.876953,-3.5625 2.266392,-0.05657 3.877085,2.091646 4.128906,3.505859 0.251822,1.414215 0.444899,18.838085 -0.15039,20.705079 -0.397509,1.246699 0.151976,3.431072 -3.625,3.451171 z"
       transform="scale(1,-1)" />
  </g>
</svg>
