<?xml version="1.0" encoding="UTF-8" standalone="no"?>
<!-- Created with Inkscape (http://www.inkscape.org/) -->

<svg
   width="32.164825mm"
   height="32.657421mm"
   viewBox="0 0 32.164825 32.657421"
   version="1.1"
   id="svg1"
   xml:space="preserve"
   xmlns="http://www.w3.org/2000/svg"
   xmlns:svg="http://www.w3.org/2000/svg"><defs
     id="defs1" /><g
     id="layer1"
     transform="translate(-118.75931,-246.22431)"><path
       style="fill:#000000;fill-opacity:1;stroke:#000000;stroke-width:1.2;stroke-linecap:round;stroke-linejoin:round;stroke-dasharray:none;stroke-opacity:1"
       d="m 124.72106,254.35468 6.76199,-2.02281 c 2.18945,1.36008 2.82596,1.90211 4.33461,3.2943 0,0 6.35742,12.59926 -3.64107,13.40838 -9.30496,-2.02282 -9.8829,-3.06314 -9.8829,-3.06314 -2.65856,-0.0578 -3.81446,2.65856 -2.19621,4.3924 l 15.89356,7.9179 h 14.3331 l -3.64107,-24.62057 c 0,0 -8.26465,-6.76199 -9.13157,-6.81978 -1.73384,-0.17338 -2.94754,1.04031 -2.94754,1.04031 l -1.67604,-0.63574 c -1.44487,0 -10.11408,3.2365 -10.11408,3.2365 -1.44487,1.50266 -0.92472,3.58328 1.90722,3.87225 z"
       id="path20" /><path
       style="fill:none;fill-opacity:1;stroke:#000000;stroke-width:1.2;stroke-linecap:round;stroke-linejoin:round;stroke-dasharray:none;stroke-opacity:1"
       d="m 126.85947,254.1235 c 0,0 -0.0578,1.1559 1.32928,1.27149 1.38707,0.11559 5.4905,-1.50267 5.4905,-1.50267"
       id="path22" /><path
       style="fill:none;fill-opacity:1;stroke:#000000;stroke-width:1.2;stroke-linecap:round;stroke-linejoin:round;stroke-dasharray:none;stroke-opacity:1"
       d="m 131.07848,254.93263 3.69887,3.98784 0.80913,9.01598"
       id="path23" /></g></svg>
