<?xml version="1.0" encoding="UTF-8" standalone="no"?>
<!-- Created with Inkscape (http://www.inkscape.org/) -->

<svg
   width="16.840574mm"
   height="19.182598mm"
   viewBox="0 0 16.840574 19.182598"
   version="1.1"
   id="svg1"
   xml:space="preserve"
   sodipodi:docname="sloper.svg"
   inkscape:version="1.4.3 (0d15f75042, 2025-12-25)"
   xmlns:inkscape="http://www.inkscape.org/namespaces/inkscape"
   xmlns:sodipodi="http://sodipodi.sourceforge.net/DTD/sodipodi-0.dtd"
   xmlns="http://www.w3.org/2000/svg"
   xmlns:svg="http://www.w3.org/2000/svg"><sodipodi:namedview
     id="namedview1"
     pagecolor="#ffffff"
     bordercolor="#000000"
     borderopacity="0.25"
     inkscape:showpageshadow="2"
     inkscape:pageopacity="0.0"
     inkscape:pagecheckerboard="0"
     inkscape:deskcolor="#d1d1d1"
     inkscape:document-units="mm"
     inkscape:zoom="3.9403029"
     inkscape:cx="-54.183652"
     inkscape:cy="20.04922"
     inkscape:window-width="1912"
     inkscape:window-height="1153"
     inkscape:window-x="0"
     inkscape:window-y="0"
     inkscape:window-maximized="0"
     inkscape:current-layer="svg1" /><defs
     id="defs1" /><path
     style="opacity:1;fill:#000000;stroke:#000000;stroke-width:1.56888;stroke-linecap:round;stroke-linejoin:round;stroke-opacity:1"
     d="M 1.2582909,1.0908823 8.1058421,13.908094 1.117688,17.942706 Z"
     id="path1"
     inkscape:export-filename="slab-tag.svg"
     inkscape:export-xdpi="96"
     inkscape:export-ydpi="96" /><g
     id="g5"
     transform="matrix(0.87707714,0.92296864,-0.92296864,0.87707714,5.3956619,-6.7442236)"
     inkscape:export-filename="slab-tag.svg"
     inkscape:export-xdpi="96"
     inkscape:export-ydpi="96"><path
       style="opacity:1;fill:none;stroke:#000000;stroke-width:0.65973517;stroke-linecap:round;stroke-linejoin:round;stroke-dasharray:none;stroke-opacity:1"
       d="M 14.576601,7.2408194 C 11.347907,6.3149441 9.3582945,6.3875876 6.9559348,6.9084539 5.0175477,7.3287242 7.1458579,5.0567033 9.0450893,4.2970108 c 0,0 1.8042697,-0.9021347 2.5164817,-0.973356 0.783433,0.047481 0.949615,2.2078563 3.204952,0.3798464 0.06972,1.6872887 0.783434,2.3265583 0.783434,2.3265583 0,0 0.261144,0.9970965 -0.973356,1.2107599 z"
       id="path2"
       sodipodi:nodetypes="csccccc" /><path
       style="opacity:1;fill:none;stroke:#000000;stroke-width:0.73827508;stroke-linecap:round;stroke-linejoin:round;stroke-dasharray:none;stroke-opacity:1"
       d="m 8.8773666,4.4919388 c 0,0 1.3192374,0.3882321 1.1055741,1.9313577"
       id="path3"
       sodipodi:nodetypes="cc" /><path
       style="opacity:1;fill:none;stroke:#000000;stroke-width:0.73827508;stroke-linecap:round;stroke-linejoin:round;stroke-dasharray:none;stroke-opacity:1"
       d="m 10.564474,3.63228 c 0,0 1.448165,0.854654 1.139539,2.9912893"
       id="path4"
       sodipodi:nodetypes="cc" /><path
       style="opacity:1;fill:none;stroke:#000000;stroke-width:0.43668185;stroke-linecap:round;stroke-linejoin:round;stroke-dasharray:none;stroke-opacity:1"
       d="m 14.742783,3.7035012 c 0,0 0.237404,-1.0683177 0.830914,-0.7359523 0.59351,0.3323656 -0.830914,0.7359523 -0.830914,0.7359523 z"
       id="path5" /></g></svg>
