<?xml version="1.0" encoding="UTF-8" standalone="no"?>
<!-- Created with Inkscape (http://www.inkscape.org/) -->

<svg
   width="16.281265mm"
   height="18.420416mm"
   viewBox="0 0 16.281265 18.420416"
   version="1.1"
   id="svg1"
   xml:space="preserve"
   xmlns="http://www.w3.org/2000/svg"
   xmlns:svg="http://www.w3.org/2000/svg"><defs
     id="defs1" /><path
     style="opacity:1;fill:#000000;stroke:#000000;stroke-width:1.56888;stroke-linecap:round;stroke-linejoin:round;stroke-opacity:1"
     d="M 0.92504174,0.78421022 7.7725929,13.601422 0.78443884,17.636034 Z"
     id="path1" /><g
     id="g5"
     transform="matrix(0.87707714,0.92296864,-0.92296864,0.87707714,5.0624127,-7.0508957)"><path
       style="opacity:1;fill:none;stroke:#000000;stroke-width:0.659735;stroke-linecap:round;stroke-linejoin:round;stroke-dasharray:none;stroke-opacity:1"
       d="M 14.576601,7.2408194 C 11.347907,6.3149441 9.3582945,6.3875876 6.9559348,6.9084539 5.0175477,7.3287242 7.1458579,5.0567033 9.0450893,4.2970108 c 0,0 1.8042697,-0.9021347 2.5164817,-0.973356 0.783433,0.047481 0.949615,2.2078563 3.204952,0.3798464 0.06972,1.6872887 0.783434,2.3265583 0.783434,2.3265583 0,0 0.261144,0.9970965 -0.973356,1.2107599 z"
       id="path2" /><path
       style="opacity:1;fill:none;stroke:#000000;stroke-width:0.738275;stroke-linecap:round;stroke-linejoin:round;stroke-dasharray:none;stroke-opacity:1"
       d="m 8.8773666,4.4919388 c 0,0 1.3192374,0.3882321 1.1055741,1.9313577"
       id="path3" /><path
       style="opacity:1;fill:none;stroke:#000000;stroke-width:0.738275;stroke-linecap:round;stroke-linejoin:round;stroke-dasharray:none;stroke-opacity:1"
       d="m 10.564474,3.63228 c 0,0 1.448165,0.854654 1.139539,2.9912893"
       id="path4" /><path
       style="opacity:1;fill:none;stroke:#000000;stroke-width:0.436682;stroke-linecap:round;stroke-linejoin:round;stroke-dasharray:none;stroke-opacity:1"
       d="m 14.742783,3.7035012 c 0,0 0.237404,-1.0683177 0.830914,-0.7359523 0.59351,0.3323656 -0.830914,0.7359523 -0.830914,0.7359523 z"
       id="path5" /></g></svg>
