<?xml version="1.0" encoding="UTF-8" standalone="no"?>
<!-- Created with Inkscape (http://www.inkscape.org/) -->

<svg
   width="16.840574mm"
   height="19.182598mm"
   viewBox="0 0 16.840574 19.182598"
   version="1.1"
   id="svg1"
   xml:space="preserve"
   xmlns="http://www.w3.org/2000/svg"
   xmlns:svg="http://www.w3.org/2000/svg"><defs
     id="defs1" /><g
     id="layer1"
     transform="translate(-147.23377,-132.93539)"><path
       id="path9"
       style="display:inline;fill:#000000;fill-opacity:1;stroke:#000000;stroke-width:0.3;stroke-linecap:round;stroke-linejoin:round;stroke-dasharray:none;stroke-opacity:1"
       d="m 158.18828,133.08542 c -9.16068,0.0308 -10.80451,18.07383 -10.80451,18.07383 0,0 4.94281,1.79008 4.20336,0.0388 -0.73945,-1.75133 1.20622,-5.56552 1.55649,-5.44877 0.35026,0.11679 0.89553,0.0392 1.40147,-0.0775 0.0413,-0.01 0.10459,-0.0431 0.18655,-0.0966 -0.78454,-1.3563 -1.23947,-3.1137 -1.0821,-5.39088 0.3352,-4.8506 2.9681,-6.21465 5.48442,-6.37997 -0.0111,-0.14391 -0.0233,-0.35524 -0.0357,-0.66456 -0.31135,-0.0377 -0.61452,-0.0553 -0.91002,-0.0543 z m 0.94568,0.71882 c 0.0201,0.2605 0.0368,0.30163 0.0413,0.30799 l 5.1e-4,5.1e-4 c -2.02386,0.0786 -5.77201,4.94704 -4.55321,6.9665 0.89218,1.86015 2.52967,-1.0509 3.50263,-0.97306 0,0 0.81752,0.46719 0.81752,1.20664 -0.0357,0.5004 -3.28861,3.65958 -4.21111,4.26227 2.5139,4.34599 8.41447,4.57182 8.41447,4.57182 l 0.77825,-15.52825 c 0,0 -2.34011,-0.97542 -4.7904,-0.81442 z" /></g></svg>
