<?xml version="1.0" encoding="UTF-8" standalone="no"?>
<!-- Created with Inkscape (http://www.inkscape.org/) -->

<svg
   width="23.47422mm"
   height="23.979012mm"
   viewBox="0 0 23.47422 23.979012"
   version="1.1"
   id="svg1"
   xml:space="preserve"
   xmlns="http://www.w3.org/2000/svg"
   xmlns:svg="http://www.w3.org/2000/svg"><defs
     id="defs1" /><g
     id="layer1"
     transform="translate(1.5250033,-188.61172)"><path
       id="path19"
       style="fill:#000000;fill-opacity:1;stroke:#000000;stroke-width:1.6;stroke-linecap:round;stroke-linejoin:round;stroke-dasharray:none;stroke-opacity:1"
       d="m 6.1587972,189.41169 c 0,0 -0.638962,1.90995 -1.920813,2.12391 -1.2824791,0.21406 -2.5290446,-0.9679 -2.5290446,-0.9679 l -1.26193846,1.31413 c 0,0 1.05809906,1.0202 1.03921306,2.41897 -0.018383,1.36146 -2.21123455,2.24689 -2.21123455,2.24689 l 0.48885905,1.67277 c 0,0 1.9287701,-0.3233 2.7543538,0.50229 0.8255836,0.82558 0.4873088,2.65514 0.4873088,2.65514 l 2.0122803,0.48886 c 0,0 0.6513079,-1.96523 1.8071248,-2.29547 1.1558172,-0.33023 2.5771037,0.7798 2.5771037,0.7798 l 0.9549809,-1.33325 c 0,0 -1.4955515,-1.20811 -0.9451624,-2.52905 0.5503889,-1.32089 2.0293334,-1.61592 2.0293334,-1.61592 l -0.213424,-1.74408 c 0,0 -1.816101,0.27781 -2.8618404,-0.54777 -1.0457391,-0.82558 -0.4857584,-2.77761 -0.4857584,-2.77761 z m -0.5860107,3.252 a 2.9583411,2.9583411 0 0 1 2.9584757,2.95848 2.9583411,2.9583411 0 0 1 -2.9584757,2.95796 2.9583411,2.9583411 0 0 1 -2.9584758,-2.95796 2.9583411,2.9583411 0 0 1 2.9584758,-2.95848 z" /><path
       id="path19-3"
       style="fill:#000000;fill-opacity:1;stroke:#000000;stroke-width:1.6;stroke-linecap:round;stroke-linejoin:round;stroke-dasharray:none;stroke-opacity:1"
       d="m 12.948114,199.73813 c 0,0 0.32778,1.98715 -0.705454,2.77541 -1.033743,0.78863 -2.6881977,0.32632 -2.6881977,0.32632 l -0.5014388,1.75157 c 0,0 1.4122365,0.40739 2.0492895,1.65281 0.620062,1.21221 -0.904726,3.01986 -0.904726,3.01986 l 1.213989,1.25035 c 0,0 1.554046,-1.18727 2.669771,-0.84326 1.115719,0.34401 1.671753,2.11955 1.671753,2.11955 l 2.007456,-0.50831 c 0,0 -0.342702,-2.04178 0.524764,-2.87393 0.867471,-0.83214 2.642772,-0.51508 2.642772,-0.51508 l 0.221134,-1.62501 c 0,0 -1.886796,-0.36906 -2.017592,-1.79409 -0.130772,-1.42498 1.038814,-2.37702 1.038814,-2.37702 l -1.003817,-1.44213 c 0,0 -1.475701,1.0944 -2.786051,0.85329 -1.310351,-0.24111 -1.727622,-2.22854 -1.727622,-2.22854 z m 1.001831,3.14885 a 2.9583411,2.9583411 0 0 1 3.998186,1.23276 2.9583411,2.9583411 0 0 1 -1.232997,3.99773 2.9583411,2.9583411 0 0 1 -3.997943,-1.2323 2.9583411,2.9583411 0 0 1 1.232754,-3.99819 z" /></g></svg>
